<svg xmlns="http://www.w3.org/2000/svg" width="100" height="75" viewBox="0 0 100 75">
  <defs>
    <style>
      .cls-1 {
        fill: #2a2a2a;
        fill-rule: evenodd;
      }
    </style>
  </defs>
  <path id="刻" class="cls-1" d="M30.41,40.813q-0.081.48,0.4,0.4l20-1.6,13.2-5.681-1.44,8.161a5.832,5.832,0,0,1-2.96,4.241L6.647,73.7l1.28-6.8a8.471,8.471,0,0,1,4.4-6.161l26.163-13.6-20.723,2a5.116,5.116,0,0,1-3.04-.56,4.89,4.89,0,0,1-1.84-1.92,5.433,5.433,0,0,1-.4-2.8,6.124,6.124,0,0,1,1.2-2.96l8.641-15.122H13.448l0.4-2.8a4.267,4.267,0,0,1,1.36-2.48,3.567,3.567,0,0,1,2.48-1.04H32.73l0.4-2.72H46.572a1.935,1.935,0,0,1,1.56.72,2.122,2.122,0,0,1,.44,1.76v0.24H66.814l-0.4,2.8a4.142,4.142,0,0,1-1.36,2.52,3.638,3.638,0,0,1-2.48,1h-23.6L30.73,39.933a1.621,1.621,0,0,0-.32.88h0Zm31.524,9.361-1.04,7.361a5.836,5.836,0,0,1-2.88,4.16l-9.121,5.2,6.321,24.563H47.052q-7.921,0-10.881-8.641l-1.84-7.761L4.646,91.779l0.88-5.441a9.452,9.452,0,0,1,4.721-6.881Zm9.281-24.723a9.01,9.01,0,0,1,2.84-5.4,7.6,7.6,0,0,1,5.321-2.2h5.681l-7.6,56.887a7.1,7.1,0,0,1-2.32,4.361,6.3,6.3,0,0,1-4.32,1.72H63.774ZM92.977,89.139a9.036,9.036,0,0,1-6.241,2.56H65.694l0.32-2.48a4.544,4.544,0,0,1,1.44-2.72,3.97,3.97,0,0,1,2.8-1.12h7.921a2.847,2.847,0,0,0,2.08-.88,3.371,3.371,0,0,0,1.12-2.08l8-60.008a7.124,7.124,0,0,1,2.28-4.281,6.072,6.072,0,0,1,4.2-1.72h9.281L96.258,82.9a10.251,10.251,0,0,1-3.28,6.241h0Z" transform="translate(-4.891 -16.594)"/>
</svg>
