<svg xmlns="http://www.w3.org/2000/svg" width="101.062" height="75.469" viewBox="0 0 101.062 75.469">
  <defs>
    <style>
      .cls-1 {
        fill: #2a2a2a;
        fill-rule: evenodd;
      }
    </style>
  </defs>
  <path id="食" class="cls-1" d="M102.647,37.2L99.686,59.685a12.171,12.171,0,0,1-3.76,7.2,10.428,10.428,0,0,1-7.281,2.96H22.557l-2.16,14.4a2.391,2.391,0,0,0,.48,1.92,2.356,2.356,0,0,0,1.92.88h5.281a2.075,2.075,0,0,1,1.52.64,1.85,1.85,0,0,1,.4,1.6l-0.56,4.48H12a8.455,8.455,0,0,1-6.561-2.72,8.569,8.569,0,0,1-1.84-6.961L10.155,37.2H27.117l-1.76,12.482H84.164l1.12-6.161H29.277l0.8-6.321H48.24l-0.08-5.921H60.641a4,4,0,0,1,2.76,1.04,3.657,3.657,0,0,1,1.24,2.64l0.08,2.24h37.925ZM83.364,56.645H24.477l-1.12,6.721H80.084a5.782,5.782,0,0,0,.96-0.08,1.88,1.88,0,0,0,.88-0.4,6.912,6.912,0,0,0,.64-0.72,1.435,1.435,0,0,0,.24-0.88Zm-19.6,16.722q-4.482,0-5.441,2.4-0.96,2.481,1.92,4.721L76.163,93.769H96.406L80.244,79.287H92.165a2.672,2.672,0,0,0,1.84-.72,3.115,3.115,0,0,0,.96-1.68l0.24-3.52H63.762ZM81.2,25.6a3.637,3.637,0,0,1,3.2,1.92l3.84,7.121h16.322L98.726,22.72a8.02,8.02,0,0,0-7.281-4.4H22.317a8.087,8.087,0,0,0-6.8,3.6L8.475,34.642H25.517l4.321-7.761a2.632,2.632,0,0,1,2.24-1.28H81.2Z" transform="translate(-3.5 -18.313)"/>
</svg>
