<svg xmlns="http://www.w3.org/2000/svg" width="101.063" height="75.437" viewBox="0 0 101.063 75.437">
  <defs>
    <style>
      .cls-1 {
        fill: #2a2a2a;
        fill-rule: evenodd;
      }
    </style>
  </defs>
  <path id="堂" class="cls-1" d="M94.588,79.913a3.052,3.052,0,0,0,2.12-.84,3.719,3.719,0,0,0,1.16-2.12l0.48-3.44h-36.8l0.64-4.561H49.3a3.277,3.277,0,0,0-2.28.92,4,4,0,0,0-1.24,2.36l-0.16,1.28H11.7a3.05,3.05,0,0,0-2.12.84,3.716,3.716,0,0,0-1.16,2.12l-0.48,3.44h36.8l-1.36,8.481H8.177a3.05,3.05,0,0,0-2.12.84,3.712,3.712,0,0,0-1.16,2.12l-0.48,3.44H93.708a3.052,3.052,0,0,0,2.12-.84,3.723,3.723,0,0,0,1.16-2.12l0.48-3.44H59.384l1.36-8.481H94.588ZM83.467,57.43a3.485,3.485,0,0,1-1.04,2,3.112,3.112,0,0,1-2.16.88H30.5a2.217,2.217,0,0,1-1.92-.88,2.474,2.474,0,0,1-.56-2l2.24-18.162h-16l-2.4,19.682a6.711,6.711,0,0,0,1.44,5.521,6.316,6.316,0,0,0,5.041,2.24H90.668a8.424,8.424,0,0,0,5.681-2.24,8.9,8.9,0,0,0,2.88-5.521l2.48-19.682H32.9l-0.8,6.4H84.827ZM99.789,24.946l-1.44-.08,2-5.521h-11.2q-4.161,0-6.241,4.561l-0.32.96H67.865l0.8-5.521h-12a4.339,4.339,0,0,0-3,1.2,4.816,4.816,0,0,0-1.56,3.04l-0.16,1.28H37.221v-0.4a5.831,5.831,0,0,0-1.76-3.64,4.99,4.99,0,0,0-3.6-1.48H20.979l0.4,5.521h-1.36a7,7,0,0,0-4.881,2,7.769,7.769,0,0,0-2.56,4.961l-0.72,4.961h14.8l0.48-3.6a2.169,2.169,0,0,1,.64-1.36,2.04,2.04,0,0,1,1.36-.56H88.907a1.382,1.382,0,0,1,1.2.56,1.525,1.525,0,0,1,.32,1.36l-0.48,3.6h14.8l0.64-4.961a5.968,5.968,0,0,0-1.28-4.881,5.245,5.245,0,0,0-4.32-2h0Z" transform="translate(-4.406 -19.344)"/>
</svg>
