<svg xmlns="http://www.w3.org/2000/svg" width="100" height="75" viewBox="0 0 100 75">
  <defs>
    <style>
      .cls-1 {
        fill: #2a2a2a;
        fill-rule: evenodd;
      }
    </style>
  </defs>
  <path id="å°" class="cls-1" d="M20.076,22.348a3.277,3.277,0,0,1,1.16-1.88,3.127,3.127,0,0,1,2.04-.76H36.8L24.4,72.755a20.836,20.836,0,0,1-7.441,11.4,19.6,19.6,0,0,1-12.482,4.52ZM62.321,81a11.935,11.935,0,0,1-1.44,3.921A11.8,11.8,0,0,1,58.4,87.8a11.488,11.488,0,0,1-3.36,1.84,12.091,12.091,0,0,1-3.68.56h-20.4l0.64-4.481a5.062,5.062,0,0,1,1.72-3.12,4.725,4.725,0,0,1,3.16-1.2h5.441a4.633,4.633,0,0,0,2.48-.64,3.167,3.167,0,0,0,1.2-2.08L54.16,18.508a4.3,4.3,0,0,1,1.48-2.68,4.2,4.2,0,0,1,2.84-1.08H71.6ZM88.244,24.029a4.8,4.8,0,0,1,1.44-3.04,4.155,4.155,0,0,1,3.04-1.28h11.841l-3.36,68.969h-4.8a10.367,10.367,0,0,1-7.881-3.16,10.931,10.931,0,0,1-2.92-8.041Z" transform="translate(-4.515 -14.969)"/>
</svg>
